<?xml version="1.0" standalone="no"?><!DOCTYPE svg PUBLIC "-//W3C//DTD SVG 1.1//EN" "http://www.w3.org/Graphics/SVG/1.1/DTD/svg11.dtd"><svg t="1599447347096" class="icon" viewBox="0 0 1024 1024" version="1.1" xmlns="http://www.w3.org/2000/svg" p-id="2341" xmlns:xlink="http://www.w3.org/1999/xlink" width="200" height="200"><defs><style type="text/css"></style></defs><path d="M275.815618 476.43815a20.004001 20.004001 0 0 1-14.139971-34.143972l251.284545-251.295976 249.387023 249.387023a20.004001 20.004001 0 0 1-28.291373 28.291373L512.960192 247.580948 289.955589 470.585551a19.946847 19.946847 0 0 1-14.139971 5.852599z" p-id="2342" fill="#36A3F4"></path><path d="M512.011431 854.730956a20.004001 20.004001 0 0 1-20.004001-20.004001V225.279344a20.004001 20.004001 0 1 1 40.008002 0v609.390456a20.004001 20.004001 0 0 1-20.004001 20.061156z" p-id="2343" fill="#36A3F4"></path><path d="M512.011431 1023.999097a510.467814 510.467814 0 1 1 199.297004-40.24805 508.810339 508.810339 0 0 1-199.297004 40.24805z m0-983.991095a470.459811 470.459811 0 1 0 183.659591 37.081703A469.030954 469.030954 0 0 0 512.011431 40.008002z" p-id="2344" fill="#36A3F4"></path></svg>